<?xml version="1.0" standalone="no"?>
<!DOCTYPE svg PUBLIC "-//W3C//DTD SVG 20010904//EN"
 "http://www.w3.org/TR/2001/REC-SVG-20010904/DTD/svg10.dtd">
<svg version="1.0" xmlns="http://www.w3.org/2000/svg"
 width="298.000000pt" height="298.000000pt" viewBox="0 0 298.000000 298.000000"
 preserveAspectRatio="xMidYMid meet">
<metadata>
Created by potrace 1.14, written by Peter Selinger 2001-2017
</metadata>
<g transform="translate(0.000000,298.000000) scale(0.100000,-0.100000)"
fill="#000000" stroke="none">
<path d="M470 2970 c0 -5 3 -10 8 -10 4 0 7 -39 8 -87 0 -49 6 -113 13 -143
24 -110 32 -166 31 -228 -1 -41 8 -93 26 -154 29 -102 29 -180 -2 -203 -16
-11 -16 -13 0 -22 9 -5 17 -18 17 -29 0 -10 0 -53 -1 -94 l-1 -75 -72 -40
c-58 -32 -308 -124 -340 -125 -5 0 -7 25 -6 55 2 45 -1 58 -17 70 -20 15 -63
19 -102 9 l-22 -6 0 -944 0 -944 780 0 c616 0 781 3 784 13 37 126 79 213 162
335 1 2 54 -5 119 -14 92 -14 118 -22 126 -37 8 -14 0 -48 -31 -140 -24 -67
-47 -130 -52 -139 -8 -17 20 -18 532 -18 l540 0 0 1463 c0 1157 -3 1466 -12
1476 -10 11 -10 13 0 7 8 -5 12 0 12 13 0 20 -4 20 -570 21 -538 0 -570 -1
-571 -17 -1 -10 -2 -55 -3 -101 -1 -46 -6 -86 -12 -90 -7 -4 -11 -38 -10 -82
0 -41 -5 -100 -11 -130 -7 -30 -18 -102 -24 -160 -11 -87 -17 -108 -36 -126
-16 -15 -23 -32 -23 -61 0 -109 -64 -239 -192 -393 -82 -98 -99 -134 -103
-210 -4 -73 -4 -72 -15 -65 -6 3 -7 -1 -4 -9 3 -9 1 -16 -6 -16 -6 0 -8 -5 -5
-10 3 -6 -9 -29 -28 -53 -69 -86 -128 -184 -121 -201 13 -35 -57 -84 -141 -98
-179 -29 -206 -30 -251 -13 -101 38 -207 240 -221 418 -3 42 -3 77 0 77 3 0
11 -19 18 -42 17 -64 58 -116 147 -185 17 -14 32 -30 32 -35 0 -18 26 -35 64
-41 36 -6 38 -5 34 18 -7 34 33 51 57 25 10 -11 22 -17 26 -14 5 3 9 -1 9 -9
0 -24 25 -27 39 -5 11 17 15 18 22 7 6 -9 9 -10 9 -2 0 7 18 18 40 24 21 7 49
23 61 35 l22 24 -21 0 c-12 0 -22 2 -22 4 0 3 41 47 90 98 50 51 90 95 90 98
0 3 -31 6 -70 7 -75 1 -95 12 -190 99 -25 23 -60 54 -78 69 -33 27 -107 161
-115 207 -3 12 -1 33 4 46 9 24 29 30 29 9 0 -8 17 -25 37 -38 26 -17 41 -35
48 -62 6 -21 15 -41 21 -45 6 -4 25 -27 43 -52 18 -25 34 -43 36 -40 1 3 12
-3 23 -13 22 -20 26 -17 36 26 5 20 12 27 31 27 26 0 34 15 13 23 -31 11 10
22 98 27 l95 5 47 52 c46 50 102 78 102 51 1 -8 7 -5 15 6 25 33 18 63 -20 92
-41 31 -54 27 -30 -10 27 -40 16 -56 -50 -78 -79 -25 -252 -22 -304 6 -43 23
-27 36 47 36 29 0 62 5 73 10 29 16 24 56 -13 89 l-32 29 -2 153 c-1 161 -9
195 -54 259 -26 37 -75 51 -187 54 -114 4 -116 7 -64 96 12 20 31 104 31 135
0 23 -3 24 -20 15 -18 -10 -19 -8 -14 20 7 31 -3 39 -24 18 -9 -9 -12 -9 -12
0 0 17 -26 15 -44 -4 -15 -14 -16 -14 -16 0 0 14 -23 16 -180 16 -113 0 -180
-4 -180 -10z m414 -35 c-4 -8 -10 -15 -15 -15 -4 0 -6 7 -3 15 4 8 10 15 15
15 4 0 6 -7 3 -15z m161 -325 c49 -19 26 -30 -60 -30 -69 0 -83 3 -79 14 9 24
94 33 139 16z m38 -100 c4 -15 14 -20 36 -20 17 0 31 -4 31 -10 0 -5 -3 -10
-7 -11 -34 -4 -69 -12 -82 -18 -11 -7 -6 -10 17 -16 17 -3 36 -4 41 -1 5 3 12
-21 16 -54 6 -55 5 -62 -19 -90 -14 -17 -30 -48 -36 -69 -11 -42 -33 -67 -49
-56 -6 3 -24 -1 -41 -10 -17 -9 -46 -15 -63 -13 -27 2 -33 8 -35 31 -2 15 -7
27 -12 27 -4 0 -11 20 -14 44 -4 24 -14 50 -22 57 -11 9 -13 23 -9 48 4 26 0
47 -15 76 -29 56 -26 65 19 65 22 0 42 -4 45 -9 3 -5 20 -14 38 -20 26 -9 30
-9 20 1 -28 28 -13 38 53 38 51 0 65 3 65 15 0 22 17 18 23 -5z m1837 -5 c-7
-9 -15 -13 -17 -11 -7 7 7 26 19 26 6 0 6 -6 -2 -15z m-2196 -345 c4 -38 4
-75 0 -81 -3 -6 -1 -15 7 -20 11 -6 10 -12 -5 -27 -18 -21 -7 -39 17 -26 6 4
4 -2 -6 -13 -10 -12 -28 -23 -39 -26 -20 -6 -21 -3 -14 76 3 45 6 106 6 135 0
37 4 52 14 52 9 0 15 -21 20 -70z m676 -152 c0 -7 -4 -19 -9 -27 -11 -17 -25
3 -17 24 7 18 26 20 26 3z m-125 -18 c4 6 24 10 46 10 32 0 39 -3 39 -20 0
-26 -30 -37 -102 -38 -54 0 -58 1 -58 23 0 27 16 35 47 24 13 -5 25 -4 28 1z
m-9 -395 c-10 -8 -23 -12 -28 -9 -14 9 2 24 25 24 21 -1 21 -1 3 -15z m1129
-1165 c-3 -5 -11 -10 -16 -10 -6 0 -7 5 -4 10 3 6 11 10 16 10 6 0 7 -4 4 -10z
m3 -35 c12 -12 -13 -20 -68 -20 -61 0 -85 10 -60 25 14 9 118 5 128 -5z m34
-19 c7 4 8 2 4 -4 -11 -18 -26 -14 -25 6 0 10 3 12 6 4 2 -6 10 -9 15 -6z"/>
<path d="M967 2856 c-4 -10 -5 -21 -2 -24 9 -9 17 6 13 25 -3 17 -4 17 -11 -1z"/>
<path d="M1452 2675 c-52 -7 -76 -15 -83 -28 -23 -40 7 -44 121 -15 82 21 85
22 76 36 -10 16 -38 18 -114 7z"/>
<path d="M1722 2660 c0 -14 2 -19 5 -12 2 6 2 18 0 25 -3 6 -5 1 -5 -13z"/>
<path d="M1630 2651 c0 -9 41 -23 48 -16 2 2 1 8 -3 14 -8 13 -45 15 -45 2z"/>
<path d="M1746 2598 c-4 -27 -12 -48 -16 -48 -5 0 -10 -31 -12 -69 -2 -38 -1
-67 1 -65 12 12 30 81 25 97 -3 10 -1 24 6 32 6 7 10 33 8 57 l-3 43 -9 -47z"/>
<path d="M1377 2562 c-10 -10 -17 -22 -17 -25 0 -4 7 -7 17 -7 15 0 15 -2 -1
-19 -10 -10 -14 -21 -9 -24 18 -10 212 7 240 22 19 10 -7 54 -37 62 -14 4 -59
7 -101 8 -62 1 -79 -2 -92 -17z"/>
<path d="M117 2347 c-4 -11 -4 -23 -1 -29 4 -6 -1 -8 -14 -4 -17 6 -19 3 -15
-14 11 -40 46 -8 41 37 -2 23 -4 25 -11 10z"/>
<path d="M70 2220 c0 -6 8 -14 18 -17 9 -4 20 -11 24 -17 4 -6 8 1 8 17 0 22
-4 27 -25 27 -14 0 -25 -5 -25 -10z"/>
<path d="M1333 2169 c-8 -8 -9 -15 0 -23 13 -14 59 2 54 19 -5 15 -40 18 -54
4z"/>
<path d="M88 1933 c7 -3 16 -2 19 1 4 3 -2 6 -13 5 -11 0 -14 -3 -6 -6z"/>
<path d="M1118 1373 c-10 -2 -18 -9 -18 -14 0 -6 8 -5 20 1 11 6 20 13 20 15
0 3 -1 4 -2 4 -2 -1 -11 -3 -20 -6z"/>
<path d="M1045 1310 c-3 -5 1 -10 9 -10 9 0 16 5 16 10 0 6 -4 10 -9 10 -6 0
-13 -4 -16 -10z"/>
</g>
</svg>
